<?xml version="1.0" encoding="UTF-8"?>
<svg id="Camada_1" data-name="Camada 1" xmlns="http://www.w3.org/2000/svg" viewBox="0 0 1080 1080">
  <defs>
    <style>
      .cls-1 {
        fill: #008aff;
      }

      .cls-1, .cls-2 {
        stroke-width: 0px;
      }
    </style>
  </defs>
  <g>
    <path class="cls-2" d="m706.42,922.12c2.04,5.6-.85,11.8-6.45,13.84l-225.4,82.04c-67.21,24.46-141.52-10.2-165.99-77.4l-60.73-166.86c-2.03-5.57.84-11.72,6.41-13.75l337.1-122.7c5.55-2.02,11.69.84,13.71,6.39l28.99,79.65,11.07,30.42,61.28,168.36Z"/>
    <path class="cls-2" d="m877.17,634.86l-27.26,9.92c-3.55,1.29-7.56.7-10.47-1.7-18.64-15.33-49.69-19.47-80.04-8.42-30.34,11.05-51.48,34.17-55.89,57.9-.69,3.71-3.38,6.74-6.93,8.03l-22.02,8.02c-5.56,2.02-11.71-.84-13.74-6.41l-25.32-69.56c-2.03-5.56.84-11.71,6.41-13.74l202.62-73.74c5.56-2.02,11.71.84,13.74,6.41l25.31,69.56c2.02,5.56-.84,11.71-6.41,13.74Z"/>
    <path class="cls-2" d="m841.6,884.41l-90.98,33.11c-5.57,2.03-11.74-.85-13.76-6.42l-57.63-158.32c-2.03-5.57.85-11.74,6.42-13.77l19.52-7.1c3.95-1.44,8.32-.4,11.31,2.55,18.09,17.8,51.15,23.2,83.41,11.46,32.25-11.74,54.11-37.14,56.53-62.4.4-4.18,3.08-7.79,7.03-9.23l24.77-9.02c5.57-2.03,11.74.85,13.76,6.42l17.01,46.73c24.46,67.2-10.2,141.52-77.4,165.98Z"/>
    <path class="cls-2" d="m817.28,691.1c-2.94,11.17-13.16,21.78-27.51,27-14.33,5.22-28.99,3.66-38.42-3.01h-.01c-4.07-2.86-7.15-6.66-8.83-11.29-2.44-6.69-1.52-13.95,1.98-20.65,4.54-8.72,13.44-16.46,25.03-20.69,11.6-4.22,23.4-4,32.48-.24,6.99,2.89,12.35,7.86,14.78,14.55,1.68,4.62,1.77,9.53.5,14.33Z"/>
  </g>
  <path class="cls-1" d="m870.29,472.93c-2.31,0-4.61.09-6.87.25h-.12c-6.12.44-11.3-4.44-11.24-10.57l.19-20.1,1.68-179.19c.3-31.66-22.34-58.88-53.5-64.38l-31-5.46c11.38-64.56-31.72-126.11-96.28-137.49-64.56-11.38-126.11,31.72-137.49,96.28l-30.99-5.47c-31.17-5.49-61.74,12.35-72.29,42.2l-84.51,239.16c-5.38,15.23-16.05,28.03-30.06,36.08l-149.9,86.09-13.3,8.2-.03.02c-20.25,14.01-34.95,35.52-40.03,60.49-3.02,14.75-2.63,30.75,1.85,47.04,8.9,32.34,34.66,57.52,67.11,66.04,20.4,5.36,40.1,4.23,57.59-1.77v.02s1.47-.54,1.47-.54c.32-.11.64-.23.94-.35l536.54-195.27,62.81-22.86.81-.29c2.58-1.17,5.23-2.17,7.97-2.99,5.91-1.78,12.17-2.74,18.66-2.74,1.64,0,3.27.06,4.89.18,33.42,2.5,59.85,30.5,59.85,64.56,0,16.65-6.32,31.85-16.68,43.33-1.7,1.88-2.26,4.52-1.4,6.89l7.09,19.49c1.62,4.45,7.24,5.93,10.77,2.78,19.97-17.79,32.58-43.7,32.58-72.49,0-53.55-43.57-97.11-97.11-97.11Zm-202.75-385.08c46.95,8.28,78.3,53.05,70.02,100l-170-29.98c8.28-46.94,53.04-78.29,99.99-70.02Zm-375.69,498.83l-17.45,49.38-10.19,28.82c-6.87,19.45-23.58,34.05-43.93,37.41-4.14.68-8.41.97-12.78.83-33.95-1.13-61.56-28.89-62.51-62.85-.63-22.34,10.13-42.25,26.87-54.35,3.56-2.57,7.22-5.62,11.27-7.44l57.33-32.17,82.47-47.6-31.09,87.98Zm465.54-269.32c-.13.76-.33,1.52-.57,2.28-19.76,60.21-81.26,98.32-145.48,86.99-26.78-4.71-50.16-17.35-68.19-35.06-7.82-7.68-14.63-16.32-20.26-25.68-12.56-20.83-19.31-45.27-18.49-70.76.31-9.87,9.27-17.2,18.99-15.48,3.98.7,7.39,2.82,9.75,5.76,2.38,2.95,3.74,6.72,3.6,10.76-.61,19.31,4.58,37.81,14.19,53.54,5.75,9.41,13.08,17.82,21.7,24.84,12.41,10.08,27.47,17.23,44.34,20.21,48.15,8.49,94.26-20.07,109.1-65.2,2.51-7.67,10.25-12.35,18.2-10.96,8.93,1.59,14.66,10.12,13.13,18.77Z"/>
</svg>